<?xml version="1.0" encoding="utf-8"?>
<!-- Generator: Adobe Illustrator 22.0.1, SVG Export Plug-In . SVG Version: 6.00 Build 0)  -->
<svg version="1.1" id="Capa_1" xmlns="http://www.w3.org/2000/svg" xmlns:xlink="http://www.w3.org/1999/xlink" x="0px" y="0px"
	 viewBox="0 0 16 16" style="enable-background:new 0 0 16 16;" xml:space="preserve">
<style type="text/css">
	.st0{fill:#40AF29;}
</style>
<path class="st0" d="M16,14.9l-4.3-4.3c0.9-1.1,1.4-2.6,1.4-4c0-3.6-2.9-6.5-6.5-6.5S0.1,3,0.1,6.6s2.9,6.5,6.5,6.5
	c1.5,0,2.9-0.5,4-1.4l4.3,4.3L16,14.9z M6.6,11.8c-2.9,0-5.2-2.3-5.2-5.2c0-2.9,2.3-5.2,5.2-5.2s5.2,2.3,5.2,5.2
	C11.8,9.4,9.5,11.8,6.6,11.8z"/>
</svg>
