<svg xmlns="http://www.w3.org/2000/svg" viewBox="0 0 1433.7 977.05"><defs><style>.cls-1{fill:none;stroke:#f9f9f9;stroke-miterlimit:10;stroke-width:8px;opacity:0.6;}</style></defs><title>Recurso 1</title><g id="Capa_2" data-name="Capa 2"><g id="Casas"><path class="cls-1" d="M1406.44,600.05l-116,21.8a27.5,27.5,0,0,0-21.16,18.76L1234.09,752a33.46,33.46,0,0,1-27.73,23.13l-104.15,13.1a43.5,43.5,0,0,1-14.26-.56l-57.39-11.85a44.25,44.25,0,0,1-26.37-16.68l-89.78-119a36.43,36.43,0,0,1-6.94-16.48L889.6,505.6a35.59,35.59,0,0,1,.34-12.52l17.17-83.22a20.66,20.66,0,0,0-17-24.59l-46.65-7.39a37.51,37.51,0,0,1-28.73-22.58L768,243.51a26.59,26.59,0,0,0-10.2-12.13l-59.24-37.81a21.24,21.24,0,0,0-28.2,4.86L654,219.53a20.59,20.59,0,0,1-31.22,1.5L511.5,103.18a27.28,27.28,0,0,0-13.92-7.91L424.49,79a16.37,16.37,0,0,0-18.75,9.9,26.1,26.1,0,0,1-26.26,16.33L274.79,97.09,98.38,6.08A18.71,18.71,0,0,0,89.79,4H18.6a14.59,14.59,0,0,0-14,18.76L46.41,163.07a25.61,25.61,0,0,0,6.19,10.55l50.69,52.16A15.32,15.32,0,0,1,101.16,249l-12.52,8.87A12.07,12.07,0,0,0,87,276l86.84,89.78s14.93,17.57,20.2,48.3,71.14,91.81,71.14,91.81l27.63,24.65a12.79,12.79,0,0,0,18-18.11L277.87,475.9a42.43,42.43,0,0,1-9.29-16.81L230.88,326.3l-124.71-173L97.39,62l62,25.41a26.06,26.06,0,0,1,14.73,15.52l42.93,122.78a53.66,53.66,0,0,0,9.6,16.85L499.46,567.34a26.84,26.84,0,0,1,6.29,17.28V698.83a20.46,20.46,0,0,0,10.64,17.95L911.84,933.4a21.57,21.57,0,0,0,15.88,1.93l118.68-31.39a23.81,23.81,0,0,1,17.41,2.07l121.7,65.7a11.08,11.08,0,0,0,16.12-7.55l8.79-43.47a27.14,27.14,0,0,1,18.39-20.47l42.77-13.53a8.56,8.56,0,0,0,4.32-13.23l-24.55-33.41s-11.41-31.61,23.71-35.12,115-26.35,115-26.35,18.44,0,23.71-39.52c3.57-26.78,11.17-83.39,15.7-117.11A19.62,19.62,0,0,0,1406.44,600.05Z"/></g></g></svg>